<mxfile host="www.draw.io" modified="2019-11-30T08:28:14.879Z" agent="Mozilla/5.0 (Windows NT 6.1; Win64; x64; rv:70.0) Gecko/20100101 Firefox/70.0" etag="UGMatQ6Q9rOjRQnUUqJz" version="12.3.3" type="github" pages="1">
  <diagram id="VdL85rXeAHXi8BzFhmhZ" name="第 1 页">
    <mxGraphModel dx="1422" dy="769" grid="1" gridSize="10" guides="1" tooltips="1" connect="1" arrows="1" fold="1" page="1" pageScale="1" pageWidth="827" pageHeight="1169" math="0" shadow="0">
      <root>
        <mxCell id="0"/>
        <mxCell id="1" parent="0"/>
        <mxCell id="1nxjGe5CsiP6qFFx0YAX-1" value="&lt;font style=&quot;font-size: 20px&quot;&gt;1&lt;/font&gt;" style="ellipse;whiteSpace=wrap;html=1;aspect=fixed;" vertex="1" parent="1">
          <mxGeometry x="190" y="270" width="50" height="50" as="geometry"/>
        </mxCell>
        <mxCell id="1nxjGe5CsiP6qFFx0YAX-2" value="" style="ellipse;whiteSpace=wrap;html=1;aspect=fixed;" vertex="1" parent="1">
          <mxGeometry x="190" y="360" width="50" height="50" as="geometry"/>
        </mxCell>
        <mxCell id="1nxjGe5CsiP6qFFx0YAX-18" style="edgeStyle=orthogonalEdgeStyle;rounded=0;orthogonalLoop=1;jettySize=auto;html=1;exitX=1;exitY=0.5;exitDx=0;exitDy=0;entryX=0;entryY=0.5;entryDx=0;entryDy=0;" edge="1" parent="1" source="1nxjGe5CsiP6qFFx0YAX-4" target="1nxjGe5CsiP6qFFx0YAX-17">
          <mxGeometry relative="1" as="geometry"/>
        </mxCell>
        <mxCell id="1nxjGe5CsiP6qFFx0YAX-4" value="&lt;div style=&quot;font-size: 20px&quot;&gt;&lt;font style=&quot;font-size: 20px&quot;&gt;&lt;b&gt;.&lt;/b&gt;&lt;/font&gt;&lt;/div&gt;&lt;div style=&quot;font-size: 20px&quot;&gt;&lt;font style=&quot;font-size: 20px&quot;&gt;&lt;b&gt;.&lt;/b&gt;&lt;/font&gt;&lt;/div&gt;&lt;div style=&quot;font-size: 20px&quot;&gt;&lt;font style=&quot;font-size: 20px&quot;&gt;&lt;b&gt;.&lt;br&gt;&lt;/b&gt;&lt;/font&gt;&lt;/div&gt;" style="text;html=1;strokeColor=none;fillColor=none;align=center;verticalAlign=middle;whiteSpace=wrap;rounded=0;" vertex="1" parent="1">
          <mxGeometry x="195" y="420" width="40" height="70" as="geometry"/>
        </mxCell>
        <mxCell id="1nxjGe5CsiP6qFFx0YAX-5" value="" style="ellipse;whiteSpace=wrap;html=1;aspect=fixed;" vertex="1" parent="1">
          <mxGeometry x="190" y="500" width="50" height="50" as="geometry"/>
        </mxCell>
        <mxCell id="1nxjGe5CsiP6qFFx0YAX-6" value="&lt;font style=&quot;font-size: 20px&quot;&gt;1&lt;/font&gt;" style="ellipse;whiteSpace=wrap;html=1;aspect=fixed;" vertex="1" parent="1">
          <mxGeometry x="320" y="270" width="50" height="50" as="geometry"/>
        </mxCell>
        <mxCell id="1nxjGe5CsiP6qFFx0YAX-7" value="" style="ellipse;whiteSpace=wrap;html=1;aspect=fixed;" vertex="1" parent="1">
          <mxGeometry x="320" y="360" width="50" height="50" as="geometry"/>
        </mxCell>
        <mxCell id="1nxjGe5CsiP6qFFx0YAX-8" value="" style="ellipse;whiteSpace=wrap;html=1;aspect=fixed;" vertex="1" parent="1">
          <mxGeometry x="320" y="500" width="50" height="50" as="geometry"/>
        </mxCell>
        <mxCell id="1nxjGe5CsiP6qFFx0YAX-11" value="" style="endArrow=classic;html=1;entryX=0;entryY=0.5;entryDx=0;entryDy=0;exitX=1;exitY=0.5;exitDx=0;exitDy=0;" edge="1" parent="1" source="1nxjGe5CsiP6qFFx0YAX-1" target="1nxjGe5CsiP6qFFx0YAX-7">
          <mxGeometry width="50" height="50" relative="1" as="geometry">
            <mxPoint x="260" y="380" as="sourcePoint"/>
            <mxPoint x="310" y="330" as="targetPoint"/>
          </mxGeometry>
        </mxCell>
        <mxCell id="1nxjGe5CsiP6qFFx0YAX-12" value="" style="endArrow=classic;html=1;exitX=1;exitY=0.5;exitDx=0;exitDy=0;entryX=0;entryY=0.5;entryDx=0;entryDy=0;" edge="1" parent="1" source="1nxjGe5CsiP6qFFx0YAX-1" target="1nxjGe5CsiP6qFFx0YAX-8">
          <mxGeometry width="50" height="50" relative="1" as="geometry">
            <mxPoint x="280" y="470" as="sourcePoint"/>
            <mxPoint x="330" y="420" as="targetPoint"/>
          </mxGeometry>
        </mxCell>
        <mxCell id="1nxjGe5CsiP6qFFx0YAX-14" value="" style="endArrow=classic;html=1;entryX=0;entryY=0.5;entryDx=0;entryDy=0;exitX=1;exitY=0.5;exitDx=0;exitDy=0;" edge="1" parent="1" source="1nxjGe5CsiP6qFFx0YAX-2" target="1nxjGe5CsiP6qFFx0YAX-7">
          <mxGeometry width="50" height="50" relative="1" as="geometry">
            <mxPoint x="270" y="470" as="sourcePoint"/>
            <mxPoint x="320" y="420" as="targetPoint"/>
          </mxGeometry>
        </mxCell>
        <mxCell id="1nxjGe5CsiP6qFFx0YAX-15" value="" style="endArrow=classic;html=1;exitX=1;exitY=0.5;exitDx=0;exitDy=0;" edge="1" parent="1" source="1nxjGe5CsiP6qFFx0YAX-2">
          <mxGeometry width="50" height="50" relative="1" as="geometry">
            <mxPoint x="280" y="490" as="sourcePoint"/>
            <mxPoint x="320" y="520" as="targetPoint"/>
          </mxGeometry>
        </mxCell>
        <mxCell id="1nxjGe5CsiP6qFFx0YAX-17" value="&lt;div style=&quot;font-size: 20px&quot;&gt;&lt;font style=&quot;font-size: 20px&quot;&gt;&lt;b&gt;.&lt;/b&gt;&lt;/font&gt;&lt;/div&gt;&lt;div style=&quot;font-size: 20px&quot;&gt;&lt;font style=&quot;font-size: 20px&quot;&gt;&lt;b&gt;.&lt;/b&gt;&lt;/font&gt;&lt;/div&gt;&lt;div style=&quot;font-size: 20px&quot;&gt;&lt;font style=&quot;font-size: 20px&quot;&gt;&lt;b&gt;.&lt;br&gt;&lt;/b&gt;&lt;/font&gt;&lt;/div&gt;" style="text;html=1;strokeColor=none;fillColor=none;align=center;verticalAlign=middle;whiteSpace=wrap;rounded=0;" vertex="1" parent="1">
          <mxGeometry x="325" y="420" width="40" height="70" as="geometry"/>
        </mxCell>
        <mxCell id="1nxjGe5CsiP6qFFx0YAX-19" value="" style="endArrow=classic;html=1;entryX=0;entryY=0.5;entryDx=0;entryDy=0;exitX=1;exitY=0.5;exitDx=0;exitDy=0;" edge="1" parent="1" source="1nxjGe5CsiP6qFFx0YAX-4" target="1nxjGe5CsiP6qFFx0YAX-7">
          <mxGeometry width="50" height="50" relative="1" as="geometry">
            <mxPoint x="280" y="650" as="sourcePoint"/>
            <mxPoint x="460" y="610" as="targetPoint"/>
          </mxGeometry>
        </mxCell>
        <mxCell id="1nxjGe5CsiP6qFFx0YAX-20" value="" style="endArrow=classic;html=1;entryX=0;entryY=0.5;entryDx=0;entryDy=0;exitX=1;exitY=0.5;exitDx=0;exitDy=0;" edge="1" parent="1" source="1nxjGe5CsiP6qFFx0YAX-4" target="1nxjGe5CsiP6qFFx0YAX-8">
          <mxGeometry width="50" height="50" relative="1" as="geometry">
            <mxPoint x="300" y="650" as="sourcePoint"/>
            <mxPoint x="350" y="600" as="targetPoint"/>
          </mxGeometry>
        </mxCell>
        <mxCell id="1nxjGe5CsiP6qFFx0YAX-22" value="" style="endArrow=classic;html=1;entryX=0;entryY=0.5;entryDx=0;entryDy=0;exitX=1;exitY=0.5;exitDx=0;exitDy=0;" edge="1" parent="1" source="1nxjGe5CsiP6qFFx0YAX-5" target="1nxjGe5CsiP6qFFx0YAX-7">
          <mxGeometry width="50" height="50" relative="1" as="geometry">
            <mxPoint x="230" y="640" as="sourcePoint"/>
            <mxPoint x="280" y="590" as="targetPoint"/>
          </mxGeometry>
        </mxCell>
        <mxCell id="1nxjGe5CsiP6qFFx0YAX-23" value="" style="endArrow=classic;html=1;entryX=0;entryY=0.5;entryDx=0;entryDy=0;exitX=1;exitY=0.5;exitDx=0;exitDy=0;" edge="1" parent="1" source="1nxjGe5CsiP6qFFx0YAX-5" target="1nxjGe5CsiP6qFFx0YAX-17">
          <mxGeometry width="50" height="50" relative="1" as="geometry">
            <mxPoint x="260" y="670" as="sourcePoint"/>
            <mxPoint x="310" y="620" as="targetPoint"/>
          </mxGeometry>
        </mxCell>
        <mxCell id="1nxjGe5CsiP6qFFx0YAX-24" value="" style="endArrow=classic;html=1;entryX=0;entryY=0.5;entryDx=0;entryDy=0;exitX=1;exitY=0.5;exitDx=0;exitDy=0;" edge="1" parent="1" source="1nxjGe5CsiP6qFFx0YAX-1" target="1nxjGe5CsiP6qFFx0YAX-17">
          <mxGeometry width="50" height="50" relative="1" as="geometry">
            <mxPoint x="270" y="690" as="sourcePoint"/>
            <mxPoint x="320" y="640" as="targetPoint"/>
          </mxGeometry>
        </mxCell>
        <mxCell id="1nxjGe5CsiP6qFFx0YAX-25" value="" style="endArrow=classic;html=1;entryX=0;entryY=0.5;entryDx=0;entryDy=0;exitX=1;exitY=0.5;exitDx=0;exitDy=0;" edge="1" parent="1" source="1nxjGe5CsiP6qFFx0YAX-2" target="1nxjGe5CsiP6qFFx0YAX-17">
          <mxGeometry width="50" height="50" relative="1" as="geometry">
            <mxPoint x="240" y="660" as="sourcePoint"/>
            <mxPoint x="290" y="610" as="targetPoint"/>
          </mxGeometry>
        </mxCell>
        <mxCell id="1nxjGe5CsiP6qFFx0YAX-26" value="" style="endArrow=classic;html=1;entryX=0;entryY=0.5;entryDx=0;entryDy=0;exitX=1;exitY=0.5;exitDx=0;exitDy=0;" edge="1" parent="1" source="1nxjGe5CsiP6qFFx0YAX-5" target="1nxjGe5CsiP6qFFx0YAX-8">
          <mxGeometry width="50" height="50" relative="1" as="geometry">
            <mxPoint x="240" y="700" as="sourcePoint"/>
            <mxPoint x="290" y="650" as="targetPoint"/>
          </mxGeometry>
        </mxCell>
        <mxCell id="1nxjGe5CsiP6qFFx0YAX-27" value="" style="ellipse;whiteSpace=wrap;html=1;aspect=fixed;" vertex="1" parent="1">
          <mxGeometry x="450" y="360" width="50" height="50" as="geometry"/>
        </mxCell>
        <mxCell id="1nxjGe5CsiP6qFFx0YAX-28" value="" style="ellipse;whiteSpace=wrap;html=1;aspect=fixed;" vertex="1" parent="1">
          <mxGeometry x="450" y="500" width="50" height="50" as="geometry"/>
        </mxCell>
        <mxCell id="1nxjGe5CsiP6qFFx0YAX-29" value="&lt;div style=&quot;font-size: 20px&quot;&gt;&lt;font style=&quot;font-size: 20px&quot;&gt;&lt;b&gt;.&lt;/b&gt;&lt;/font&gt;&lt;/div&gt;&lt;div style=&quot;font-size: 20px&quot;&gt;&lt;font style=&quot;font-size: 20px&quot;&gt;&lt;b&gt;.&lt;/b&gt;&lt;/font&gt;&lt;/div&gt;&lt;div style=&quot;font-size: 20px&quot;&gt;&lt;font style=&quot;font-size: 20px&quot;&gt;&lt;b&gt;.&lt;br&gt;&lt;/b&gt;&lt;/font&gt;&lt;/div&gt;" style="text;html=1;strokeColor=none;fillColor=none;align=center;verticalAlign=middle;whiteSpace=wrap;rounded=0;" vertex="1" parent="1">
          <mxGeometry x="455" y="420" width="40" height="70" as="geometry"/>
        </mxCell>
        <mxCell id="1nxjGe5CsiP6qFFx0YAX-30" value="" style="endArrow=classic;html=1;entryX=0;entryY=0.5;entryDx=0;entryDy=0;exitX=1;exitY=0.5;exitDx=0;exitDy=0;" edge="1" parent="1" source="1nxjGe5CsiP6qFFx0YAX-7" target="1nxjGe5CsiP6qFFx0YAX-27">
          <mxGeometry width="50" height="50" relative="1" as="geometry">
            <mxPoint x="420" y="360" as="sourcePoint"/>
            <mxPoint x="470" y="310" as="targetPoint"/>
          </mxGeometry>
        </mxCell>
        <mxCell id="1nxjGe5CsiP6qFFx0YAX-31" value="" style="endArrow=classic;html=1;entryX=0;entryY=0.5;entryDx=0;entryDy=0;exitX=1;exitY=0.5;exitDx=0;exitDy=0;" edge="1" parent="1" source="1nxjGe5CsiP6qFFx0YAX-7" target="1nxjGe5CsiP6qFFx0YAX-28">
          <mxGeometry width="50" height="50" relative="1" as="geometry">
            <mxPoint x="380" y="480" as="sourcePoint"/>
            <mxPoint x="430" y="430" as="targetPoint"/>
          </mxGeometry>
        </mxCell>
        <mxCell id="1nxjGe5CsiP6qFFx0YAX-32" value="" style="endArrow=classic;html=1;entryX=0;entryY=0.5;entryDx=0;entryDy=0;exitX=1;exitY=0.5;exitDx=0;exitDy=0;" edge="1" parent="1" source="1nxjGe5CsiP6qFFx0YAX-7" target="1nxjGe5CsiP6qFFx0YAX-29">
          <mxGeometry width="50" height="50" relative="1" as="geometry">
            <mxPoint x="380" y="470" as="sourcePoint"/>
            <mxPoint x="430" y="420" as="targetPoint"/>
          </mxGeometry>
        </mxCell>
        <mxCell id="1nxjGe5CsiP6qFFx0YAX-33" value="" style="endArrow=classic;html=1;entryX=0;entryY=0.5;entryDx=0;entryDy=0;exitX=1;exitY=0.5;exitDx=0;exitDy=0;" edge="1" parent="1" source="1nxjGe5CsiP6qFFx0YAX-17" target="1nxjGe5CsiP6qFFx0YAX-27">
          <mxGeometry width="50" height="50" relative="1" as="geometry">
            <mxPoint x="380" y="660" as="sourcePoint"/>
            <mxPoint x="430" y="610" as="targetPoint"/>
          </mxGeometry>
        </mxCell>
        <mxCell id="1nxjGe5CsiP6qFFx0YAX-34" value="" style="endArrow=classic;html=1;entryX=0;entryY=0.5;entryDx=0;entryDy=0;exitX=1;exitY=0.5;exitDx=0;exitDy=0;" edge="1" parent="1" source="1nxjGe5CsiP6qFFx0YAX-17" target="1nxjGe5CsiP6qFFx0YAX-29">
          <mxGeometry width="50" height="50" relative="1" as="geometry">
            <mxPoint x="380" y="680" as="sourcePoint"/>
            <mxPoint x="430" y="630" as="targetPoint"/>
          </mxGeometry>
        </mxCell>
        <mxCell id="1nxjGe5CsiP6qFFx0YAX-35" value="" style="endArrow=classic;html=1;entryX=0;entryY=0.5;entryDx=0;entryDy=0;exitX=1;exitY=0.5;exitDx=0;exitDy=0;" edge="1" parent="1" source="1nxjGe5CsiP6qFFx0YAX-8" target="1nxjGe5CsiP6qFFx0YAX-28">
          <mxGeometry width="50" height="50" relative="1" as="geometry">
            <mxPoint x="380" y="660" as="sourcePoint"/>
            <mxPoint x="430" y="610" as="targetPoint"/>
          </mxGeometry>
        </mxCell>
        <mxCell id="1nxjGe5CsiP6qFFx0YAX-36" value="" style="endArrow=classic;html=1;entryX=0;entryY=0.5;entryDx=0;entryDy=0;exitX=1;exitY=0.5;exitDx=0;exitDy=0;" edge="1" parent="1" source="1nxjGe5CsiP6qFFx0YAX-8" target="1nxjGe5CsiP6qFFx0YAX-29">
          <mxGeometry width="50" height="50" relative="1" as="geometry">
            <mxPoint x="420" y="680" as="sourcePoint"/>
            <mxPoint x="470" y="630" as="targetPoint"/>
          </mxGeometry>
        </mxCell>
        <mxCell id="1nxjGe5CsiP6qFFx0YAX-37" value="" style="endArrow=classic;html=1;entryX=0;entryY=0.5;entryDx=0;entryDy=0;exitX=1;exitY=0.5;exitDx=0;exitDy=0;" edge="1" parent="1" source="1nxjGe5CsiP6qFFx0YAX-8" target="1nxjGe5CsiP6qFFx0YAX-27">
          <mxGeometry width="50" height="50" relative="1" as="geometry">
            <mxPoint x="400" y="670" as="sourcePoint"/>
            <mxPoint x="450" y="620" as="targetPoint"/>
          </mxGeometry>
        </mxCell>
        <mxCell id="1nxjGe5CsiP6qFFx0YAX-38" value="" style="endArrow=classic;html=1;entryX=0;entryY=0.5;entryDx=0;entryDy=0;exitX=1;exitY=0.5;exitDx=0;exitDy=0;" edge="1" parent="1" source="1nxjGe5CsiP6qFFx0YAX-6" target="1nxjGe5CsiP6qFFx0YAX-27">
          <mxGeometry width="50" height="50" relative="1" as="geometry">
            <mxPoint x="350" y="700" as="sourcePoint"/>
            <mxPoint x="400" y="650" as="targetPoint"/>
          </mxGeometry>
        </mxCell>
        <mxCell id="1nxjGe5CsiP6qFFx0YAX-39" value="" style="endArrow=classic;html=1;entryX=0;entryY=0.5;entryDx=0;entryDy=0;exitX=1;exitY=0.5;exitDx=0;exitDy=0;" edge="1" parent="1" source="1nxjGe5CsiP6qFFx0YAX-6" target="1nxjGe5CsiP6qFFx0YAX-28">
          <mxGeometry width="50" height="50" relative="1" as="geometry">
            <mxPoint x="380" y="670" as="sourcePoint"/>
            <mxPoint x="430" y="620" as="targetPoint"/>
          </mxGeometry>
        </mxCell>
        <mxCell id="1nxjGe5CsiP6qFFx0YAX-40" value="" style="endArrow=classic;html=1;entryX=0;entryY=0.5;entryDx=0;entryDy=0;exitX=1;exitY=0.5;exitDx=0;exitDy=0;" edge="1" parent="1" source="1nxjGe5CsiP6qFFx0YAX-6" target="1nxjGe5CsiP6qFFx0YAX-29">
          <mxGeometry width="50" height="50" relative="1" as="geometry">
            <mxPoint x="390" y="720" as="sourcePoint"/>
            <mxPoint x="440" y="670" as="targetPoint"/>
          </mxGeometry>
        </mxCell>
        <mxCell id="1nxjGe5CsiP6qFFx0YAX-41" value="&lt;font style=&quot;font-size: 15px&quot;&gt;输入层&lt;/font&gt;" style="text;html=1;strokeColor=none;fillColor=none;align=center;verticalAlign=middle;whiteSpace=wrap;rounded=0;" vertex="1" parent="1">
          <mxGeometry x="187.5" y="584" width="55" height="20" as="geometry"/>
        </mxCell>
        <mxCell id="1nxjGe5CsiP6qFFx0YAX-42" value="&lt;font style=&quot;font-size: 15px&quot;&gt;隐藏层&lt;/font&gt;" style="text;html=1;strokeColor=none;fillColor=none;align=center;verticalAlign=middle;whiteSpace=wrap;rounded=0;" vertex="1" parent="1">
          <mxGeometry x="317.5" y="584" width="55" height="20" as="geometry"/>
        </mxCell>
        <mxCell id="1nxjGe5CsiP6qFFx0YAX-44" value="&lt;font style=&quot;font-size: 15px&quot;&gt;输出层&lt;/font&gt;" style="text;html=1;strokeColor=none;fillColor=none;align=center;verticalAlign=middle;whiteSpace=wrap;rounded=0;" vertex="1" parent="1">
          <mxGeometry x="447.5" y="584" width="55" height="20" as="geometry"/>
        </mxCell>
        <mxCell id="1nxjGe5CsiP6qFFx0YAX-45" value="" style="endArrow=classic;html=1;exitX=1;exitY=0.5;exitDx=0;exitDy=0;" edge="1" parent="1" source="1nxjGe5CsiP6qFFx0YAX-27">
          <mxGeometry width="50" height="50" relative="1" as="geometry">
            <mxPoint x="560" y="410" as="sourcePoint"/>
            <mxPoint x="560" y="385" as="targetPoint"/>
          </mxGeometry>
        </mxCell>
        <mxCell id="1nxjGe5CsiP6qFFx0YAX-46" value="" style="endArrow=classic;html=1;exitX=1;exitY=0.5;exitDx=0;exitDy=0;" edge="1" parent="1" source="1nxjGe5CsiP6qFFx0YAX-29">
          <mxGeometry width="50" height="50" relative="1" as="geometry">
            <mxPoint x="530" y="480" as="sourcePoint"/>
            <mxPoint x="560" y="455" as="targetPoint"/>
          </mxGeometry>
        </mxCell>
        <mxCell id="1nxjGe5CsiP6qFFx0YAX-47" value="" style="endArrow=classic;html=1;exitX=1;exitY=0.5;exitDx=0;exitDy=0;" edge="1" parent="1" source="1nxjGe5CsiP6qFFx0YAX-28">
          <mxGeometry width="50" height="50" relative="1" as="geometry">
            <mxPoint x="620" y="550" as="sourcePoint"/>
            <mxPoint x="560" y="525" as="targetPoint"/>
          </mxGeometry>
        </mxCell>
        <mxCell id="1nxjGe5CsiP6qFFx0YAX-48" value="&lt;font style=&quot;font-size: 20px&quot;&gt;h&lt;font style=&quot;font-size: 20px&quot;&gt;θ&lt;/font&gt;(x)&lt;/font&gt;" style="text;html=1;strokeColor=none;fillColor=none;align=center;verticalAlign=middle;whiteSpace=wrap;rounded=0;" vertex="1" parent="1">
          <mxGeometry x="590" y="445" width="40" height="20" as="geometry"/>
        </mxCell>
        <mxCell id="1nxjGe5CsiP6qFFx0YAX-49" value="&lt;font style=&quot;font-size: 20px&quot;&gt;&lt;font style=&quot;font-size: 20px&quot;&gt;θ1&lt;/font&gt;&lt;/font&gt;" style="text;html=1;strokeColor=none;fillColor=none;align=center;verticalAlign=middle;whiteSpace=wrap;rounded=0;" vertex="1" parent="1">
          <mxGeometry x="260" y="240" width="40" height="20" as="geometry"/>
        </mxCell>
        <mxCell id="1nxjGe5CsiP6qFFx0YAX-50" value="&lt;font style=&quot;font-size: 20px&quot;&gt;&lt;font style=&quot;font-size: 20px&quot;&gt;θ2&lt;/font&gt;&lt;/font&gt;" style="text;html=1;strokeColor=none;fillColor=none;align=center;verticalAlign=middle;whiteSpace=wrap;rounded=0;" vertex="1" parent="1">
          <mxGeometry x="393" y="240" width="40" height="20" as="geometry"/>
        </mxCell>
        <mxCell id="1nxjGe5CsiP6qFFx0YAX-51" value="&lt;font style=&quot;font-size: 25px&quot;&gt;神经网络模型&lt;/font&gt;" style="text;html=1;strokeColor=none;fillColor=none;align=center;verticalAlign=middle;whiteSpace=wrap;rounded=0;" vertex="1" parent="1">
          <mxGeometry x="212.5" y="630" width="265" height="20" as="geometry"/>
        </mxCell>
      </root>
    </mxGraphModel>
  </diagram>
</mxfile>
